# xmcd
#
# Track frame offsets:
#  150
#  14282
#  27090
#  49374
#  68410
#  82850
#  102148
#  127078
#  149721
#
# Disc length: 2480 seconds
#
# Revision: 0
# Processed by: cddbd v1.5.1PL2 Copyright (c) Steve Scherf et al.
# Submitted via: Collectorz.com_Music_Collector 6.11
#
DISCID=7309ae09
DTITLE=Kingfish - I Hear You Knockin'
DYEAR=2001
DGENRE=Americana - Roots Rock - Rock and Roll
TTITLE0=Juke
TTITLE1=Goodbye Your Honor
TTITLE2=Battle Hymn Of The Republic
TTITLE3=Big Iron
TTITLE4=Jump Back
TTITLE5=I Hear You Knockin'
TTITLE6=Around And Around
TTITLE7=All I Need Is Time
TTITLE8=Mule Skinner Blues
EXTD=
EXTT0=
EXTT1=
EXTT2=
EXTT3=
EXTT4=
EXTT5=
EXTT6=
EXTT7=
EXTT8=
PLAYORDER=
